inDegrees=no
num_controls=7
num_derivatives=13
num_iterations=122
num_multipliers=7
num_parameters=0
num_slacks=7
num_states=26
objective=5.892668
objective_accelerations=0.912724
objective_balance=0.044073
objective_effort=0.285269
objective_height=4.543431
objective_ligament=0.107172
solver_duration=1291.144997
status=Solve_Succeeded
success=true
DataType=double
version=3
OpenSimVersion=4.4-2022-07-23-0e9fedc
endheader
time	/jointset/ground_pelvis/pelvis_tilt/value	/jointset/ground_pelvis/pelvis_tx/value	/jointset/ground_pelvis/pelvis_ty/value	/jointset/hip_l/hip_flexion_l/value	/jointset/hip_l/hip_adduction_l/value	/jointset/hip_l/hip_rotation_l/value	/jointset/back/lumbar_extension/value	/jointset/patellofemoral_l/patellar_flexion_l/value	/jointset/knee_l/knee_flexion_l/value	/jointset/knee_l/knee_adduction_l/value	/jointset/knee_l/knee_rotation_l/value	/jointset/ankle_l/ankle_angle_l/value	/jointset/subtalar_l/subtalar_angle_l/value	/jointset/ground_pelvis/pelvis_tilt/speed	/jointset/ground_pelvis/pelvis_tx/speed	/jointset/ground_pelvis/pelvis_ty/speed	/jointset/hip_l/hip_flexion_l/speed	/jointset/hip_l/hip_adduction_l/speed	/jointset/hip_l/hip_rotation_l/speed	/jointset/back/lumbar_extension/speed	/jointset/patellofemoral_l/patellar_flexion_l/speed	/jointset/knee_l/knee_flexion_l/speed	/jointset/knee_l/knee_adduction_l/speed	/jointset/knee_l/knee_rotation_l/speed	/jointset/ankle_l/ankle_angle_l/speed	/jointset/subtalar_l/subtalar_angle_l/speed	/forceset/tau_hip_flexion_l	/forceset/tau_hip_adduction_l	/forceset/tau_hip_rotation_l	/forceset/tau_knee_flexion_l	/forceset/tau_ankle_angle_l	/forceset/tau_subtalar_angle_l	/forceset/tau_lumbar_extension	lambda_cid13_p0	lambda_cid13_p1	lambda_cid13_p2	lambda_cid13_p3	lambda_cid13_p4	lambda_cid13_p5	lambda_cid14_p0	/jointset/ground_pelvis/pelvis_tilt/accel	/jointset/ground_pelvis/pelvis_tx/accel	/jointset/ground_pelvis/pelvis_ty/accel	/jointset/hip_l/hip_flexion_l/accel	/jointset/hip_l/hip_adduction_l/accel	/jointset/hip_l/hip_rotation_l/accel	/jointset/back/lumbar_extension/accel	/jointset/patellofemoral_l/patellar_flexion_l/accel	/jointset/knee_l/knee_flexion_l/accel	/jointset/knee_l/knee_adduction_l/accel	/jointset/knee_l/knee_rotation_l/accel	/jointset/ankle_l/ankle_angle_l/accel	/jointset/subtalar_l/subtalar_angle_l/accel	gamma_cid13_p0	gamma_cid13_p1	gamma_cid13_p2	gamma_cid13_p3	gamma_cid13_p4	gamma_cid13_p5	gamma_cid14_p0
1	-0.4266557001883958	-0.01267016475901663	0.5115738987719032	1.841822668149761	-0.4845444894755323	-0.08478971963165807	-0.2617976625301593	1.681593017743911	1.681593017743954	0.174532901358327	-0.1745329251994329	0.4362045004058227	0.1184409732123679	-0.01924165758243527	0.009312649038644722	0.002566108488846501	-0.003440096689510877	-0.003775876713579962	-0.0043529062164527	-1.349289365077711e-05	-0.003024694736336913	-0.003024694736336964	0.0004188143307590955	4.322922051266182e-06	0.01920621770382474	0.01026139376654328	-0.2800942448130961	0.05666735292948838	-0.06861308937428663	-0.3677327416912863	-0.06533197861686782	0.03940877191380104	0.251899096329416	-60.25037077424672	-0.988749769574038	-6.548646265069159	21.02491434641259	-658.5316983266355	-24.21608917493939	-0.02907951924800904	0.7844970012763032	-0.2053169290863213	2.367363834770124	-6.796566121140495	0.5093835541550435	-2.004615571521106	-0.01513711767290065	-6.557506635276233	-6.557506635276253	-1.129870314891676	-0.03669641434262921	-1.295912718824682	-0.2098044254166437	3.889010186827062e-09	2.219114269687291e-08	-2.232181641819907e-08	2.412183484787969e-09	-1.723871464961235e-09	3.984159769489306e-08	1.265843277655464e-10
1.01	-0.4268095564991151	-0.01258729577856492	0.5117178258566065	1.841449268059396	-0.484555827319796	-0.08492872498400192	-0.2617978172044055	1.681235242567354	1.681235242567352	0.1744771405466728	-0.1745325708799765	0.4363319874575304	0.1185348076763057	-0.01152828588619985	0.007267209530101668	0.02621752461960824	-0.07123487040974005	0.001508365205797858	-0.02341352921084697	-1.642692600012748e-05	-0.0685293413249437	-0.06852934132494318	-0.01160676180151305	6.226964352606163e-05	0.006284793581042669	0.008498638901918898	-0.280007652602701	0.05669880983566964	-0.06856103308292269	-0.3677092293992248	-0.06524310012580176	0.03944287624706889	0.2518446955822493	-60.20977701228026	-1.021277226962428	-6.531343780000493	20.86443128225982	-658.4561508843493	-24.26841058634947	-0.02908048166833493	0.764957710626888	-0.2032518196918843	2.363759095450126	-6.770172900786578	0.537968201568957	-1.851588557812658	0.007280708693382849	-6.546795363710089	-6.546795363709919	-1.244267754229939	0.02630471102324525	-1.29121931306642	-0.1605204227004099	3.739766200944939e-09	-5.152499310125676e-08	-9.414969414970572e-08	-1.843984139591645e-08	-1.898542058800557e-08	-1.237030669391113e-07	7.82612025211264e-09
1.02	-0.4268862390015098	-0.01252470006478894	0.5120982128212609	1.840398072251165	-0.4845143180067188	-0.08525729714517293	-0.2617979707680235	1.680222450586299	1.680222450586258	0.1743000506752387	-0.1745317818283546	0.4363300678573304	0.1186108127104549	-0.003806895916780091	0.005257995703498236	0.04985808447919537	-0.1389992402628648	0.006793554754756004	-0.04226626798180889	-1.327076997566319e-05	-0.1340280556358393	-0.1340280556358383	-0.02384699760719036	9.079619020613272e-05	-0.006675112704197503	0.006695507808672886	-0.2799210603923077	0.0567302667418647	-0.06850897679170125	-0.3676857171071717	-0.06515422163473503	0.03947698058036309	0.251790294835078	-60.17513871206304	-1.056161799448859	-6.50978107479888	20.73440341995777	-658.456999688054	-24.35204180528318	-0.02909419067369086	0.7861006559130653	-0.1980717926982613	2.365192580535203	-6.790485347719692	0.5095730800706715	-1.963038726834852	-0.01391907999799004	-6.55632017973392	-6.556320179733961	-1.172802249572998	-0.0425804493024293	-1.303609151316114	-0.2178796711415525	7.402416419791616e-09	-1.351590000251102e-07	-1.894378364979598e-07	-4.369918239214205e-08	-3.711679158915096e-08	-3.40333863561916e-07	2.107086649199688e-08
1.03	-0.4268855756223958	-0.01248194473434034	0.5127148705888163	1.838669553700122	-0.4844199447734495	-0.08577314740819703	-0.2617980800139256	1.67855484093025	1.678554840930218	0.1739993836683084	-0.1745308721289396	0.4361982657985624	0.1186685147963957	0.003949225068011549	0.003306181838715523	0.07346371898042239	-0.206682489116824	0.01208482511912462	-0.06086488466505113	-8.656960380960098e-06	-0.199479741332869	-0.1994797413328666	-0.03631154808101786	9.181571531347916e-05	-0.01969964288724273	0.004837363923794338	-0.2795804433273121	0.05672885273105103	-0.06835440784253219	-0.3675861869188373	-0.06477501862022815	0.03958933834659728	0.2515646517216776	-60.020573136405	-1.168579315182793	-6.450101982509944	20.44639849060523	-658.1649612786614	-24.5773391340166	-0.02910814528460022	0.7718267894815871	-0.1917834191658936	2.356775215867191	-6.753937044229927	0.5395042129893591	-1.802429391609034	0.00763982952873052	-6.537479583374322	-6.537479583374043	-1.28704671024872	0.0214643897901808	-1.304034918001678	-0.1708441604984121	1.11039635182784e-08	-2.188942097155528e-07	-2.849653693014868e-07	-6.900349600179137e-08	-5.525703832374636e-08	-5.575063554090964e-07	3.437219651061111e-08
